<svg width="16" height="16" viewBox="0 0 16 16" fill="none" xmlns="http://www.w3.org/2000/svg">
<path opacity="0.2" d="M10.8933 1.33321H5.11334C2.85334 1.33321 1.33334 2.91987 1.33334 5.27987V10.7265C1.33334 13.0799 2.85334 14.6665 5.11334 14.6665H10.8933C13.1533 14.6665 14.6667 13.0799 14.6667 10.7265V5.27987C14.6667 2.91987 13.1533 1.33321 10.8933 1.33321Z" fill="black" fill-opacity="0.4"/>
<path d="M10.3823 10.5429C10.2949 10.5429 10.2069 10.5202 10.1263 10.4729L7.50893 8.91153C7.35826 8.82087 7.26559 8.65753 7.26559 8.48153V5.11687C7.26559 4.84087 7.48959 4.61687 7.76559 4.61687C8.04159 4.61687 8.26559 4.84087 8.26559 5.11687V8.19753L10.6389 9.61287C10.8756 9.75487 10.9536 10.0615 10.8123 10.2989C10.7183 10.4555 10.5523 10.5429 10.3823 10.5429Z" fill="black" fill-opacity="0.4"/>
</svg>
