<svg width="14" height="12" viewBox="0 0 14 12" fill="none" xmlns="http://www.w3.org/2000/svg">
<path opacity="0.4" fill-rule="evenodd" clip-rule="evenodd" d="M10.8244 2.0307C11.9626 2.90924 12.9317 4.19635 13.6277 5.80605C13.6797 5.92823 13.6797 6.0711 13.6277 6.18746C12.2358 9.40686 9.75776 11.3333 7.00004 11.3333H6.99354C4.24232 11.3333 1.76427 9.40686 0.372398 6.18746C0.320366 6.0711 0.320366 5.92823 0.372398 5.80605C1.76427 2.58601 4.24232 0.666656 6.99354 0.666656H7.00004C8.3789 0.666656 9.68622 1.14504 10.8244 2.0307ZM4.39841 5.99999C4.39841 7.42221 5.56264 8.57938 7.00004 8.57938C8.43093 8.57938 9.59516 7.42221 9.59516 5.99999C9.59516 4.5713 8.43093 3.41413 7.00004 3.41413C5.56264 3.41413 4.39841 4.5713 4.39841 5.99999Z" fill="black" fill-opacity="0.4"/>
<path d="M8.62065 5.99791C8.62065 6.88356 7.89219 7.6076 7.00114 7.6076C6.10358 7.6076 5.37512 6.88356 5.37512 5.99791C5.37512 5.88801 5.38813 5.78522 5.40764 5.68178H5.44016C6.16211 5.68178 6.74748 5.1129 6.7735 4.40114C6.84504 4.38886 6.92309 4.38174 7.00114 4.38174C7.89219 4.38174 8.62065 5.10578 8.62065 5.99791Z" fill="black" fill-opacity="0.4"/>
</svg>
