<svg width="24" height="25" viewBox="0 0 24 25" fill="none" xmlns="http://www.w3.org/2000/svg">
<path d="M17.9185 14.82C17.6595 15.071 17.5405 15.434 17.5995 15.79L18.4885 20.71C18.5635 21.127 18.3875 21.549 18.0385 21.79C17.6965 22.04 17.2415 22.07 16.8685 21.87L12.4395 19.56C12.2855 19.478 12.1145 19.434 11.9395 19.429H11.6685C11.5745 19.443 11.4825 19.473 11.3985 19.519L6.96851 21.84C6.74951 21.95 6.50151 21.989 6.25851 21.95C5.66651 21.838 5.27151 21.274 5.36851 20.679L6.25851 15.759C6.31751 15.4 6.19851 15.035 5.93951 14.78L2.32851 11.28C2.02651 10.987 1.92151 10.547 2.05951 10.15C2.19351 9.754 2.53551 9.465 2.94851 9.4L7.91851 8.679C8.29651 8.64 8.62851 8.41 8.79851 8.07L10.9885 3.58C11.0405 3.48 11.1075 3.388 11.1885 3.31L11.2785 3.24C11.3255 3.188 11.3795 3.145 11.4395 3.11L11.5485 3.07L11.7185 3H12.1395C12.5155 3.039 12.8465 3.264 13.0195 3.6L15.2385 8.07C15.3985 8.397 15.7095 8.624 16.0685 8.679L21.0385 9.4C21.4585 9.46 21.8095 9.75 21.9485 10.15C22.0795 10.551 21.9665 10.991 21.6585 11.28L17.9185 14.82Z" fill="#00A48C"/>
</svg>
