<svg width="14" height="14" viewBox="0 0 14 14" fill="none" xmlns="http://www.w3.org/2000/svg">
<path opacity="0.2" d="M9.89337 0.333191H4.11337C1.85337 0.333191 0.333374 1.91986 0.333374 4.27986V9.72652C0.333374 12.0799 1.85337 13.6665 4.11337 13.6665H9.89337C12.1534 13.6665 13.6667 12.0799 13.6667 9.72652V4.27986C13.6667 1.91986 12.1534 0.333191 9.89337 0.333191Z" fill="black" fill-opacity="0.4"/>
<path d="M9.38229 9.54285C9.29496 9.54285 9.20696 9.52018 9.12629 9.47285L6.50896 7.91152C6.35829 7.82085 6.26562 7.65752 6.26562 7.48152V4.11685C6.26562 3.84085 6.48962 3.61685 6.76562 3.61685C7.04162 3.61685 7.26562 3.84085 7.26562 4.11685V7.19752L9.63896 8.61285C9.87562 8.75485 9.95362 9.06152 9.81229 9.29885C9.71829 9.45552 9.55229 9.54285 9.38229 9.54285Z" fill="black" fill-opacity="0.4"/>
</svg>
